<svg width="364" height="47" viewBox="0 0 364 47" fill="none" xmlns="http://www.w3.org/2000/svg">
<path d="M0.392 17H11.552V14.12H3.608V9.992H10.688V7.112H3.608V3.416H11.552V0.535999H0.392V17ZM13.3228 17H16.2028V9.872C16.2028 8.264 17.3788 7.208 19.1308 7.208C20.8828 7.208 22.0588 8.264 22.0588 9.872V17H24.9388V9.536C24.9388 6.608 22.7548 4.664 19.4668 4.664C18.2908 4.664 16.9948 5.144 16.2028 5.888V5H13.3228V17ZM32.1541 17.336C32.9461 17.336 33.7621 17.192 34.1941 17V14.936H32.1061C31.4821 14.936 31.0501 14.528 31.0501 13.928V7.4H34.0741V5H31.0501V0.535999H28.1701V5H26.2501V7.4H28.1701V13.928C28.1701 15.968 29.7541 17.336 32.1541 17.336ZM41.5186 17.336C44.4466 17.336 46.9426 15.56 47.7346 12.92H44.8066C44.2546 14.12 42.9346 14.936 41.5186 14.936C39.6466 14.936 38.2066 13.688 37.9426 11.792H47.7826L48.0226 11.552V11C48.0226 7.208 45.4306 4.664 41.5186 4.664C37.6066 4.664 35.0146 7.208 35.0146 11C35.0146 14.792 37.6066 17.336 41.5186 17.336ZM38.1346 9.392C38.6866 7.904 39.9106 7.064 41.5186 7.064C43.1266 7.064 44.3506 7.904 44.9026 9.392H38.1346ZM49.7446 17H52.6246V9.896C52.6246 8.288 53.8966 7.208 55.8166 7.208H56.8006V5C56.4646 4.856 55.9606 4.76 55.5286 4.76C54.4246 4.76 53.2486 5.432 52.6246 6.416V5H49.7446V17ZM68.8573 17.336C69.6493 17.336 70.4653 17.192 70.8973 17V14.936H68.8093C68.1853 14.936 67.7533 14.528 67.7533 13.928V7.4H70.7773V5H67.7533V0.535999H64.8733V5H62.9533V7.4H64.8733V13.928C64.8733 15.968 66.4573 17.336 68.8573 17.336ZM72.6665 17H75.5465V9.872C75.5465 8.264 76.7225 7.208 78.4745 7.208C80.2265 7.208 81.4025 8.264 81.4025 9.872V17H84.2825V9.536C84.2825 6.608 82.0985 4.664 78.8105 4.664C77.6345 4.664 76.3385 5.144 75.5465 5.888V0.535999H72.6665V17ZM92.2843 17.336C95.2123 17.336 97.7083 15.56 98.5003 12.92H95.5723C95.0203 14.12 93.7003 14.936 92.2843 14.936C90.4123 14.936 88.9723 13.688 88.7083 11.792H98.5483L98.7883 11.552V11C98.7883 7.208 96.1963 4.664 92.2843 4.664C88.3723 4.664 85.7803 7.208 85.7803 11C85.7803 14.792 88.3723 17.336 92.2843 17.336ZM88.9003 9.392C89.4523 7.904 90.6763 7.064 92.2843 7.064C93.8923 7.064 95.1163 7.904 95.6683 9.392H88.9003ZM111.597 17.336C115.509 17.336 118.101 14.792 118.101 11C118.101 7.208 115.509 4.664 111.597 4.664C107.685 4.664 105.093 7.208 105.093 11C105.093 14.792 107.685 17.336 111.597 17.336ZM111.597 14.792C109.413 14.792 107.973 13.28 107.973 11C107.973 8.72 109.413 7.208 111.597 7.208C113.781 7.208 115.221 8.72 115.221 11C115.221 13.28 113.781 14.792 111.597 14.792ZM124.568 17.336C125.36 17.336 126.176 17.192 126.608 17V14.936H124.52C123.896 14.936 123.464 14.528 123.464 13.928V7.4H126.488V5H123.464V0.535999H120.584V5H118.664V7.4H120.584V13.928C120.584 15.968 122.168 17.336 124.568 17.336ZM135.241 4.664C133.777 4.664 132.169 5.336 131.257 6.32V5H128.377V21.464H131.257V15.68C132.169 16.664 133.777 17.336 135.241 17.336C139.033 17.336 141.577 14.792 141.577 11C141.577 7.208 139.033 4.664 135.241 4.664ZM134.953 7.208C137.209 7.208 138.697 8.72 138.697 11C138.697 13.28 137.209 14.792 134.953 14.792C132.745 14.792 131.257 13.28 131.257 11C131.257 8.72 132.745 7.208 134.953 7.208ZM154.076 17.336C154.868 17.336 155.684 17.192 156.116 17V14.936H154.028C153.404 14.936 152.972 14.528 152.972 13.928V7.4H155.996V5H152.972V0.535999H150.092V5H148.172V7.4H150.092V13.928C150.092 15.968 151.676 17.336 154.076 17.336ZM163.441 17.336C167.353 17.336 169.945 14.792 169.945 11C169.945 7.208 167.353 4.664 163.441 4.664C159.529 4.664 156.937 7.208 156.937 11C156.937 14.792 159.529 17.336 163.441 17.336ZM163.441 14.792C161.257 14.792 159.817 13.28 159.817 11C159.817 8.72 161.257 7.208 163.441 7.208C165.625 7.208 167.065 8.72 167.065 11C167.065 13.28 165.625 14.792 163.441 14.792ZM180.461 17H183.389L188.213 5H185.117L181.925 13.976L178.757 5H175.661L180.461 17ZM195.151 17.336C198.079 17.336 200.575 15.56 201.367 12.92H198.439C197.887 14.12 196.567 14.936 195.151 14.936C193.279 14.936 191.839 13.688 191.575 11.792H201.415L201.655 11.552V11C201.655 7.208 199.063 4.664 195.151 4.664C191.239 4.664 188.647 7.208 188.647 11C188.647 14.792 191.239 17.336 195.151 17.336ZM191.767 9.392C192.319 7.904 193.543 7.064 195.151 7.064C196.759 7.064 197.983 7.904 198.535 9.392H191.767ZM203.377 17H206.257V9.896C206.257 8.288 207.529 7.208 209.449 7.208H210.433V5C210.097 4.856 209.593 4.76 209.161 4.76C208.057 4.76 206.881 5.432 206.257 6.416V5H203.377V17ZM211.979 3.176H214.859V0.535999H211.979V3.176ZM211.979 17H214.859V5H211.979V17ZM218.553 17H221.433V7.4H223.953V5H221.433V3.656C221.433 2.936 221.769 2.6 222.489 2.6H223.953V0.535999C223.617 0.295999 222.753 0.199999 222.249 0.199999C220.041 0.199999 218.553 1.592 218.553 3.68V5H216.633V7.4H218.553V17ZM226.72 21.464H229.816L236.296 5H233.2L230.248 12.536L227.272 5H224.2L228.784 16.232L226.72 21.464ZM243.009 21.464H246.105L252.585 5H249.489L246.537 12.536L243.561 5H240.489L245.073 16.232L243.009 21.464ZM259.276 17.336C263.188 17.336 265.78 14.792 265.78 11C265.78 7.208 263.188 4.664 259.276 4.664C255.364 4.664 252.772 7.208 252.772 11C252.772 14.792 255.364 17.336 259.276 17.336ZM259.276 14.792C257.092 14.792 255.652 13.28 255.652 11C255.652 8.72 257.092 7.208 259.276 7.208C261.46 7.208 262.9 8.72 262.9 11C262.9 13.28 261.46 14.792 259.276 14.792ZM279.118 5H276.238V12.128C276.238 13.736 275.062 14.792 273.31 14.792C271.558 14.792 270.382 13.736 270.382 12.128V5H267.502V12.464C267.502 15.392 269.686 17.336 272.974 17.336C274.15 17.336 275.446 16.856 276.238 16.112V17H279.118V5ZM281.331 17H284.211V9.896C284.211 8.288 285.483 7.208 287.403 7.208H288.387V5C288.051 4.856 287.547 4.76 287.115 4.76C286.011 4.76 284.835 5.432 284.211 6.416V5H281.331V17ZM302.07 4.664C300.606 4.664 298.998 5.336 298.086 6.32V5H295.206V21.464H298.086V15.68C298.998 16.664 300.606 17.336 302.07 17.336C305.862 17.336 308.406 14.792 308.406 11C308.406 7.208 305.862 4.664 302.07 4.664ZM301.782 7.208C304.038 7.208 305.526 8.72 305.526 11C305.526 13.28 304.038 14.792 301.782 14.792C299.574 14.792 298.086 13.28 298.086 11C298.086 8.72 299.574 7.208 301.782 7.208ZM309.901 17H312.781V9.872C312.781 8.264 313.957 7.208 315.709 7.208C317.461 7.208 318.637 8.264 318.637 9.872V17H321.517V9.536C321.517 6.608 319.333 4.664 316.045 4.664C314.869 4.664 313.573 5.144 312.781 5.888V0.535999H309.901V17ZM329.519 17.336C333.431 17.336 336.023 14.792 336.023 11C336.023 7.208 333.431 4.664 329.519 4.664C325.607 4.664 323.015 7.208 323.015 11C323.015 14.792 325.607 17.336 329.519 17.336ZM329.519 14.792C327.335 14.792 325.895 13.28 325.895 11C325.895 8.72 327.335 7.208 329.519 7.208C331.703 7.208 333.143 8.72 333.143 11C333.143 13.28 331.703 14.792 329.519 14.792ZM337.51 17H340.39V9.872C340.39 8.264 341.566 7.208 343.318 7.208C345.07 7.208 346.246 8.264 346.246 9.872V17H349.126V9.536C349.126 6.608 346.942 4.664 343.654 4.664C342.478 4.664 341.182 5.144 340.39 5.888V5H337.51V17ZM357.128 17.336C360.056 17.336 362.552 15.56 363.344 12.92H360.416C359.864 14.12 358.544 14.936 357.128 14.936C355.256 14.936 353.816 13.688 353.552 11.792H363.392L363.632 11.552V11C363.632 7.208 361.04 4.664 357.128 4.664C353.216 4.664 350.624 7.208 350.624 11C350.624 14.792 353.216 17.336 357.128 17.336ZM353.744 9.392C354.296 7.904 355.52 7.064 357.128 7.064C358.736 7.064 359.96 7.904 360.512 9.392H353.744ZM0.392 46H3.608V34L11.696 46H15.224V29.536H12.008V41.512L3.92 29.536H0.392V46ZM29.1341 34H26.2541V41.128C26.2541 42.736 25.0781 43.792 23.3261 43.792C21.5741 43.792 20.3981 42.736 20.3981 41.128V34H17.5181V41.464C17.5181 44.392 19.7021 46.336 22.9901 46.336C24.1661 46.336 25.4621 45.856 26.2541 45.112V46H29.1341V34ZM31.3462 46H34.2262V37.912C34.2262 36.88 35.0902 36.208 36.4102 36.208C37.7302 36.208 38.5942 36.88 38.5942 37.912V46H41.4742V37.912C41.4742 36.88 42.3382 36.208 43.6582 36.208C44.9782 36.208 45.8422 36.88 45.8422 37.912V46H48.7222V37.624C48.7222 35.248 46.8022 33.664 43.9462 33.664C42.6262 33.664 41.1862 34.24 40.3462 35.104C39.5302 34.24 38.2582 33.664 37.1542 33.664C36.0022 33.664 34.9462 34.168 34.2262 35.08V34H31.3462V46ZM57.8039 46.336C61.5959 46.336 64.1399 43.792 64.1399 40C64.1399 36.208 61.5959 33.664 57.8039 33.664C56.3399 33.664 54.7319 34.336 53.8199 35.32V29.536H50.9399V46H53.8199V44.68C54.7319 45.664 56.3399 46.336 57.8039 46.336ZM57.5159 43.792C55.3079 43.792 53.8199 42.28 53.8199 40C53.8199 37.72 55.3079 36.208 57.5159 36.208C59.7719 36.208 61.2599 37.72 61.2599 40C61.2599 42.28 59.7719 43.792 57.5159 43.792ZM71.8936 46.336C74.8216 46.336 77.3176 44.56 78.1096 41.92H75.1816C74.6296 43.12 73.3096 43.936 71.8936 43.936C70.0216 43.936 68.5816 42.688 68.3176 40.792H78.1576L78.3976 40.552V40C78.3976 36.208 75.8056 33.664 71.8936 33.664C67.9816 33.664 65.3896 36.208 65.3896 40C65.3896 43.792 67.9816 46.336 71.8936 46.336ZM68.5096 38.392C69.0616 36.904 70.2856 36.064 71.8936 36.064C73.5016 36.064 74.7256 36.904 75.2776 38.392H68.5096ZM80.1196 46H82.9996V38.896C82.9996 37.288 84.2716 36.208 86.1916 36.208H87.1756V34C86.8396 33.856 86.3356 33.76 85.9036 33.76C84.7996 33.76 83.6236 34.432 82.9996 35.416V34H80.1196V46Z" fill="#636F8C"/>
</svg>
